P3
5 4
255
0 0 0
63 0 0
127 0 0
191 0 0
255 0 0
0 85 0
63 85 0
127 85 0
191 85 0
255 85 0
0 170 0
63 170 0
127 170 0
191 170 0
255 170 0
0 255 0
63 255 0
127 255 0
191 255 0
255 255 0
